<?xml version="1.0" standalone="no"?>
<!DOCTYPE svg PUBLIC "-//W3C//DTD SVG 20010904//EN"
 "http://www.w3.org/TR/2001/REC-SVG-20010904/DTD/svg10.dtd">
<svg version="1.0" xmlns="http://www.w3.org/2000/svg"
 width="512.000000pt" height="512.000000pt" viewBox="0 0 512.000000 512.000000"
 preserveAspectRatio="xMidYMid meet">

<g transform="translate(0.000000,512.000000) scale(0.100000,-0.100000)"
fill="#000000" stroke="none">
<path d="M2290 5034 c-860 -131 -1524 -854 -1569 -1709 -20 -385 64 -742 246
-1046 54 -89 1592 -2208 1603 -2208 7 0 1480 2048 1548 2152 204 311 303 704
280 1109 -21 376 -175 760 -423 1058 -291 349 -707 581 -1156 645 -131 18
-402 18 -529 -1z m515 -340 c770 -125 1323 -834 1255 -1607 -12 -137 -50 -309
-95 -422 -54 -137 -120 -247 -304 -503 -740 -1031 -1087 -1511 -1092 -1512 -7
0 -1184 1610 -1268 1735 -30 44 -73 121 -97 170 -233 489 -193 1044 107 1496
84 126 282 324 408 407 331 218 702 299 1086 236z"/>
<path d="M2392 4051 c-195 -48 -365 -186 -452 -366 -51 -104 -70 -187 -70
-306 0 -299 177 -551 460 -653 447 -162 921 174 920 653 0 119 -19 202 -70
306 -139 288 -473 443 -788 366z m318 -352 c177 -83 253 -301 169 -477 -33
-68 -116 -146 -186 -173 -80 -31 -186 -31 -266 0 -69 27 -153 105 -185 172
-60 125 -43 270 45 385 30 40 87 79 149 105 72 28 199 23 274 -12z"/>
</g>
</svg>
